<svg t="1742460995958" class="icon" viewBox="0 0 1024 1024" version="1.1" xmlns="http://www.w3.org/2000/svg" p-id="30246" width="200" height="200"><path d="M969.142857 548.571429q0 14.857143-10.857143 25.714286t-25.714286 10.857143l-128 0q0 97.714286-38.285714 165.714286l118.857143 119.428571q10.857143 10.857143 10.857143 25.714286t-10.857143 25.714286q-10.285714 10.857143-25.714286 10.857143t-25.714286-10.857143l-113.142857-112.571429q-2.857143 2.857143-8.571429 7.428571t-24 16.285714-37.142857 20.857143-46.857143 16.571429-55.428571 7.428571l0-512-73.142857 0 0 512q-29.142857 0-58-7.714286t-49.714286-18.857143-37.714286-22.285714-24.857143-18.571429l-8.571429-8-104.571429 118.285714q-11.428571 12-27.428571 12-13.714286 0-24.571429-9.142857-10.857143-10.285714-11.714286-25.428571t8.857143-26.571429l115.428571-129.714286q-33.142857-65.142857-33.142857-156.571429l-128 0q-14.857143 0-25.714286-10.857143t-10.857143-25.714286 10.857143-25.714286 25.714286-10.857143l128 0 0-168-98.857143-98.857143q-10.857143-10.857143-10.857143-25.714286t10.857143-25.714286 25.714286-10.857143 25.714286 10.857143l98.857143 98.857143 482.285714 0 98.857143-98.857143q10.857143-10.857143 25.714286-10.857143t25.714286 10.857143 10.857143 25.714286-10.857143 25.714286l-98.857143 98.857143 0 168 128 0q14.857143 0 25.714286 10.857143t10.857143 25.714286zm-274.285714-329.142857l-365.714286 0q0-76 53.428571-129.428571t129.428571-53.428571 129.428571 53.428571 53.428571 129.428571z" p-id="30247"></path></svg>
