<svg t="1742460196923" class="icon" viewBox="0 0 1024 1024" version="1.1" xmlns="http://www.w3.org/2000/svg" p-id="14835" width="200" height="200"><path d="M872.768 151.232h-0.064l107.264 21.44c5.76 1.152 10.496 5.376 12.16 11.072a16 16 0 0 1-3.968 15.936l-87.872 87.936a56.064 56.064 0 0 1-39.616 16.384H787.84L604.8 487.104A96 96 0 1 1 416 512a96.064 96.064 0 0 1 120.896-92.736l183.104-183.168V163.328c0-14.848 5.888-29.12 16.384-39.616L824.32 35.776a16 16 0 0 1 15.936-3.968c5.696 1.664 9.92 6.4 11.072 12.16z" p-id="14836"></path><path d="M128 512a384 384 0 1 0 753.216-105.984 48.064 48.064 0 1 1 92.288-26.432 480.128 480.128 0 0 1-800.832 471.744A480.064 480.064 0 0 1 644.416 50.496a48 48 0 0 1-26.432 92.288A384.064 384.064 0 0 0 128 512z" p-id="14837"></path><path d="M320 512a192.128 192.128 0 0 0 300.736 158.464 192 192 0 0 0 81.92-180.928 47.872 47.872 0 0 1 66.88-50.048 48 48 0 0 1 28.48 39.04A288 288 0 1 1 545.024 225.92a48 48 0 1 1-10.88 95.36A192 192 0 0 0 320 512z" p-id="14838"></path></svg>
