<svg t="1742461338053" class="icon" viewBox="0 0 1024 1024" version="1.1" xmlns="http://www.w3.org/2000/svg" p-id="38572" width="200" height="200"><path d="M416.05 264h576c17.6 0 32-14.4 32-32V152c0-17.6-14.4-32-32-32H416.05c-17.6 0-32 14.4-32 32v80c0 17.6 14.4 32 32 32z m0 320h576c17.6 0 32-14.4 32-32v-80c0-17.6-14.4-32-32-32H416.05c-17.6 0-32 14.4-32 32v80c0 17.6 14.4 32 32 32z m0 320h576c17.6 0 32-14.4 32-32v-80c0-17.6-14.4-32-32-32H416.05c-17.6 0-32 14.4-32 32v80c0 17.6 14.4 32 32 32zM128.05 736c-53 0-97.2 43-97.2 96s44.2 96 97.2 96 96-43 96-96-43-96-96-96z m185-598l-144.4 144.4-31.2 31.2c-9.4 9.4-25.8 9.4-35.2 0L7.05 218.8c-9.4-9.4-9.4-24.6 0-34l31.4-31.4c9.4-9.4 24.6-9.4 34 0l45.4 44.2 127.4-126.6c9.4-9.4 24.6-9.4 34 0l34 33c9.2 9.4 9.2 24.6-0.2 34z m0 319.2l-144.4 144.4-31.4 31.4c-9.4 9.4-25.8 9.4-35.2 0L7.05 538c-9.4-9.4-9.4-24.6 0-34l31.4-31.4c9.4-9.4 24.6-9.4 34 0l45.4 44.2 127.4-127.4c9.4-9.4 24.6-9.4 34 0l34 34c9.2 9.2 9.2 24.4-0.2 33.8z" p-id="38573"></path></svg>
