<svg t="1742462024302" class="icon" viewBox="0 0 1024 1024" version="1.1" xmlns="http://www.w3.org/2000/svg" p-id="54058" width="200" height="200"><path d="M352.29696 481.72544m-52.31104 0a52.31104 52.31104 0 1 0 104.62208 0 52.31104 52.31104 0 1 0-104.62208 0Z" p-id="54059"></path><path d="M513.51552 429.4144c-28.88704 0-52.31104 23.424-52.31104 52.31104 0 28.89216 23.424 52.31616 52.31104 52.31616 28.928 0 52.34688-23.424 52.34688-52.31616 0-28.88704-23.41888-52.31104-52.34688-52.31104z" p-id="54060"></path><path d="M512 0C229.23776 0 0 229.23776 0 512s229.23776 512 512 512 512-229.23776 512-512S794.76224 0 512 0z m282.99264 642.70336c0 32.18944-28.26752 60.3648-64.37888 60.3648H356.3264L231.56224 763.4432V300.6208c0-32.18944 28.18048-60.36992 64.39424-60.36992h434.65728c36.1984 0 64.37888 28.18048 64.37888 60.36992v342.08256z" p-id="54061"></path><path d="M674.72384 429.4144c-28.88704 0-52.31104 23.424-52.31104 52.31104 0 28.89216 23.424 52.31616 52.31104 52.31616 28.8512 0 52.35712-23.424 52.35712-52.31616 0-28.88704-23.424-52.31104-52.35712-52.31104z" p-id="54062"></path></svg>
