<svg t="1742461876844" class="icon" viewBox="0 0 1024 1024" version="1.1" xmlns="http://www.w3.org/2000/svg" p-id="48681" width="200" height="200"><path d="M65.42832 207.541555c1.419105-76.228262 70.647064-144.132337 147.334027-142.150095 199.191771-0.610236 398.376374-0.255971 597.569168-0.203753-0.258019 198.478122 0.308189 397.006415-0.307166 595.484538-185.424608-0.308189-370.898363 0.099317-556.379285-0.203753-41.290223-0.610236-82.376694 23.058921-101.272498 60.082614-17.062025 30.879358-16.402643 69.986657-0.863135 101.371815 17.472603 36.771818 56.783656 61.19865 97.310061 62.116051 211.991361-0.104436 423.930504 0.05017 635.917769-0.050171 0.100341-223.46502-0.054266-446.880893 0.050171-670.345913 24.783144-0.05017 49.617483 0 74.405746 0 0.149487 248.402771 0.05017 496.855712 0.050171 745.30763-247.084007 0-494.21716 0.05017-741.303214-0.049147-58.405491 0.504775-115.542387-34.743501-139.458301-88.32342-10.871614-23.112163-13.718016-48.908954-13.152831-74.147727 0.149487-196.296223-0.054266-392.592446 0.099317-588.888669z" p-id="48682"></path><path d="M288.89334 735.53362c173.850609-0.049146 347.639784-0.153583 521.438175 0.050171-0.099317 24.481098 0.05017 49.011343-0.099317 73.542611-173.749244-0.05017-347.488249 0.049146-521.239541 0-0.19761-24.580415-0.148463-49.061513-0.099317-73.592782z" p-id="48683"></path></svg>
