<svg t="1742977257977" class="icon" viewBox="0 0 1024 1024" version="1.1" xmlns="http://www.w3.org/2000/svg" p-id="4459" width="200" height="200"><path d="M664.628 155.137c0 39.922-15.318 73.841-45.843 101.702-30.524 27.86-67.743 41.79-111.543 41.79-45.163 0-83.063-13.93-113.587-41.79-30.58-27.86-45.843-61.724-45.843-101.759 0-39.922 15.32-73.841 45.843-101.701 30.524-27.86 68.424-41.79 113.587-41.79 43.8 0 81.02 13.93 111.543 41.79 30.581 27.86 45.843 61.723 45.843 101.701zM345.827 658.152c0-39.978 15.318-73.898 45.843-101.758 31.885-29.106 70.353-43.603 115.572-43.603 42.495 0 79.658 14.497 111.543 43.603 31.886 27.86 50.496 59.345 55.829 94.453 10.61 65.404-2.667 130.242-39.886 194.457-35.857 64.158-87.657 113.253-155.457 147.116-37.163 19.423-67.687 18.8-91.63-1.812-22.58-19.367-15.886-42.357 19.971-69.028 19.858-13.307 36.482-30.295 49.815-50.851 13.276-20.612 21.9-41.79 25.872-63.592 1.362-9.683-3.29-14.553-13.957-14.553-26.553-1.19-53.786-14.553-81.7-39.978a123.061 122.823 0 0 1-41.815-94.454z" p-id="4460"></path></svg>